<?xml version="1.0" encoding="UTF-8" standalone="no"?>
<!DOCTYPE svg PUBLIC "-//W3C//DTD SVG 1.1//EN" "http://www.w3.org/Graphics/SVG/1.1/DTD/svg11.dtd">
<svg class="railroad-diagram" width="335" height="148" viewBox="0 0 335 148" xmlns="http://www.w3.org/2000/svg" xmlns:xlink="http://www.w3.org/1999/xlink"><g transform="translate(.5 .5)"><g><path d="M20 37v20m10 -20v20m-10 -10h20"></path></g><g><path d="M40 47h0"></path><path d="M295 47h0"></path><path d="M40 47h20"></path><g><path d="M60 47h0"></path><g><path d="M60 47h10"></path><path d="M265 47h10"></path><g class="terminal "><path d="M70 47h0"></path><path d="M132.5 47h0"></path><rect x="70" y="36" width="62.5" height="22"></rect><text x="101.25" y="51">[1-9]</text></g><path d="M132.5 47h10"></path><g><path d="M142.5 47h0"></path><path d="M265 47h0"></path><path d="M142.5 47a10 10 0 0 0 10 -10v-7a10 10 0 0 1 10 -10"></path><g><path d="M162.5 20h82.5"></path></g><path d="M245 20a10 10 0 0 1 10 10v7a10 10 0 0 0 10 10"></path><path d="M142.5 47h20"></path><g><path d="M162.5 47h0"></path><path d="M245 47h0"></path><path d="M162.5 47h10"></path><g class="terminal "><path d="M172.5 47h0"></path><path d="M235 47h0"></path><rect x="172.5" y="36" width="62.5" height="22"></rect><text x="203.75" y="51">[0-9]</text></g><path d="M235 47h10"></path><path d="M172.5 47a10 10 0 0 0 -10 10v7a10 10 0 0 0 10 10"></path><g><path d="M172.5 74h62.5"></path></g><path d="M235 74a10 10 0 0 0 10 -10v-7a10 10 0 0 0 -10 -10"></path></g><path d="M245 47h20"></path></g></g><path d="M275 47h0"></path></g><path d="M275 47h20"></path><path d="M40 47a10 10 0 0 1 10 10v34a10 10 0 0 0 10 10"></path><g><path d="M60 101h64.75"></path><g><path d="M124.75 101h10"></path><path d="M200.25 101h10"></path><g><path d="M134.75 101h0"></path><path d="M200.25 101h0"></path><path d="M134.75 101h10"></path><g class="terminal "><path d="M144.75 101h0"></path><path d="M190.25 101h0"></path><rect x="144.75" y="90" width="45.5" height="22"></rect><text x="167.5" y="105">'0'</text></g><path d="M190.25 101h10"></path><path d="M144.75 101a10 10 0 0 0 -10 10v7a10 10 0 0 0 10 10"></path><g><path d="M144.75 128h45.5"></path></g><path d="M190.25 128a10 10 0 0 0 10 -10v-7a10 10 0 0 0 -10 -10"></path></g></g><path d="M210.25 101h64.75"></path></g><path d="M275 101a10 10 0 0 0 10 -10v-34a10 10 0 0 1 10 -10"></path></g><path d="M 295 47 h 20 m -10 -10 v 20 m 10 -20 v 20"></path></g><defs><style type="text/css"><![CDATA[
svg.railroad-diagram path { stroke-width: 2; stroke: darkgray; fill: rgba(0, 0, 0, 0);}/* All text except comments. */svg.railroad-diagram text { font: bold 12px Hack, "Source Code Pro", monospace; text-anchor: middle; fill: #404040;}/* Comment text */svg.railroad-diagram text.comment { font: italic 10px Hack, "Source Code Pro", monospace; fill: #404040;}/* The terminal boxes. */svg.railroad-diagram g.terminal rect { stroke-width: 2; stroke: #404040; fill: rgba(200, 200, 200, 1);}svg.railroad-diagram g.non-terminal rect { /* The non-terminal boxes. */ stroke-width: 2; stroke: #404040; fill: rgba(255, 255, 255, 1);}/* Multiple choice text, not working atm. */svg.railroad-diagram text.diagram-text { font-size: 12px Hack, "Source Code Pro", monospace; fill: red;}/* Multiple choice text, not working atm. */svg.railroad-diagram path.diagram-text { stroke-width: 1; stroke: red; fill: red; cursor: help;}
 ]]>
</style></defs></svg>